<svg width="120" height="120" viewBox="0 0 128 128" fill="none" xmlns="http://www.w3.org/2000/svg">
<path d="M0 16.2162C0 7.26024 7.26025 0 16.2162 0H103.784C112.74 0 120 7.26025 120 16.2162V103.784C120 112.74 112.74 120 103.784 120H16.2162C7.26024 120 0 112.74 0 103.784V16.2162Z" fill="#F97316"/>
<path d="M33.8742 77.8125C30.699 77.8125 28.125 75.2486 28.1251 72.0734C28.1252 62.2504 28.1254 43.1511 28.125 41.9698C28.1245 40.375 38.5 39.4396 39 40.9698C39.5 42.5 39.1193 47.7762 39.1193 47.7762C40.7258 44.8519 42.7339 42.7206 45.1436 41.3824C47.5533 40.0441 50.1137 39.375 52.8246 39.375C55.4853 39.375 57.87 40.0441 59.9785 41.3824C62.087 42.6711 63.6934 44.7776 64.7979 47.7019C66.5048 44.8767 68.6635 42.795 71.274 41.4567C73.9347 40.0689 76.6206 39.375 79.3315 39.375C83.8497 39.375 87.2384 40.9115 89.4975 43.9845C91.7566 47.008 92.8611 51.3697 92.8109 57.0696L92.7018 72.094C92.6788 75.2589 90.1066 77.8125 86.9416 77.8125V77.8125C83.7437 77.8125 81.1579 75.2076 81.1814 72.0099L81.2894 57.2927C81.2894 55.0127 80.8627 53.2284 80.0092 51.9397C79.1558 50.6014 77.8505 49.9323 76.0934 49.9323C74.738 49.9323 73.4578 50.3536 72.253 51.1962C71.0983 52.0388 70.0692 53.501 69.1655 55.5827C68.2619 57.6644 67.5339 60.5144 66.9817 64.1326C66.6636 66.4252 66.4261 69.0958 66.2693 72.1446C66.1075 75.2889 63.5557 77.8125 60.4072 77.8125V77.8125C57.2176 77.8125 54.6319 75.2268 54.6319 72.0372V57.2927C54.6319 55.0127 54.2303 53.2284 53.427 51.9397C52.6238 50.6014 51.3436 49.9323 49.5865 49.9323C48.2311 49.9323 46.9509 50.3536 45.7461 51.1962C44.5914 52.0388 43.5623 53.501 42.6586 55.5827C41.755 57.6644 41.027 60.5144 40.4748 64.1326C40.1259 66.4184 39.8772 69.0801 39.7287 72.1177C39.5747 75.2686 37.0289 77.8125 33.8742 77.8125V77.8125Z" fill="white"/>
<style>
    .logo-box { fill: #F97316; }
    @media (prefers-color-scheme: dark) {
        .logo-box { fill: #F97316; }
    }
</style>
</svg>
