<svg width="128" height="128" viewBox="0 0 128 128" fill="none" xmlns="http://www.w3.org/2000/svg">
<path class="logo-box" d="M0 17.2973C0 7.74426 7.74426 0 17.2973 0H110.703C120.256 0 128 7.74426 128 17.2973V110.703C128 120.256 120.256 128 110.703 128H17.2973C7.74426 128 0 120.256 0 110.703V17.2973Z" />
<path d="M30 83V42.6344H42.2092L41.7273 50.9613C43.4409 47.842 45.5828 45.5687 48.1532 44.1412C50.7236 42.7137 53.4546 42 56.3462 42C59.1844 42 61.728 42.7137 63.977 44.1412C66.2261 45.5158 67.9397 47.7627 69.1178 50.882C70.9384 47.8685 73.2411 45.648 76.0256 44.2205C78.8637 42.7402 81.7286 42 84.6203 42C89.4397 42 93.0543 43.6389 95.464 46.9168C97.8737 50.1418 99.0518 54.7943 98.9983 60.8743L98.8376 83H86.548L86.7087 61.1122C86.7087 58.6802 86.2535 56.7769 85.3432 55.4023C84.4329 53.9749 83.0406 53.2611 81.1663 53.2611C79.7205 53.2611 78.355 53.7105 77.0698 54.6093C75.8382 55.5081 74.7404 57.0677 73.7765 59.2882C72.8127 61.5087 72.0362 64.5487 71.4471 68.4081C70.9117 72.2676 70.5904 77.1315 70.4833 83H58.274V61.1122C58.274 58.6802 57.8456 56.7769 56.9888 55.4023C56.1321 53.9749 54.7665 53.2611 52.8923 53.2611C51.4465 53.2611 50.081 53.7105 48.7958 54.6093C47.5642 55.5081 46.4664 57.0677 45.5025 59.2882C44.5386 61.5087 43.7622 64.5487 43.1731 68.4081C42.5841 72.2676 42.2628 77.1315 42.2092 83H30Z" fill="white"/>
<style>
    .logo-box { fill: #F97316; }
    @media (prefers-color-scheme: dark) {
        .logo-box { fill: #F97316; }
    }
</style>
</svg>